<svg width="247" height="35" viewBox="0 0 247 35" fill="none" xmlns="http://www.w3.org/2000/svg">
<path d="M96.5098 2.2688C98.8738 2.26883 101.2 2.8515 103.316 4.01782C105.356 5.1453 107.129 6.7596 108.54 8.7229L104.556 11.9495C103.641 10.6471 102.439 9.57771 101.066 8.81958C99.6556 8.06148 98.0921 7.6536 96.5098 7.65356C93.7834 7.65356 91.2474 8.78069 89.3408 10.8801C87.4343 12.9407 86.3477 15.6236 86.3477 18.5784C86.3477 21.533 87.4344 24.2542 89.3408 26.3147C91.2474 28.4141 93.7643 29.5422 96.5098 29.5422C98.34 29.5422 100.113 29.017 101.657 28.0256C102.992 27.1704 104.136 25.9653 104.975 24.5852V21.2805H97.8057L97.7871 21.2415V15.8762H109.951V26.0237L109.665 26.6458C108.33 29.1144 106.462 31.1555 104.231 32.594C101.867 34.0713 99.1979 34.8684 96.5098 34.8684C94.4316 34.8684 92.4866 34.421 90.6182 33.5657C88.9203 32.8185 87.3899 31.7468 86.0742 30.3665L85.5527 29.8059C84.2682 28.3892 83.2693 26.7363 82.5723 24.8958C81.7907 22.8742 81.3721 20.7164 81.3721 18.5393C81.3721 16.3623 81.7907 14.2435 82.5723 12.2415C83.3158 10.2782 84.4028 8.52834 85.8135 7.05103C87.167 5.53485 88.788 4.36854 90.6182 3.57153C92.4866 2.71621 94.4316 2.2688 96.5098 2.2688ZM207.299 13.7581C209.167 14.1663 210.864 15.1383 212.274 16.6155C214.143 18.6372 215.135 21.3204 215.135 24.178C215.135 27.0354 214.143 29.6788 212.274 31.6809C210.406 33.7414 207.928 34.8108 205.259 34.8108C202.59 34.8108 200.112 33.7414 198.243 31.6809C196.375 29.6788 195.383 27.0354 195.383 24.178V23.8665H199.653V24.178C199.654 27.5214 202.151 30.2034 205.259 30.2034C208.366 30.2034 210.864 27.5214 210.864 24.178C210.864 20.8344 208.366 18.1516 205.259 18.1516C204.229 18.1516 203.314 18.4626 202.399 18.9485L199.749 16.4993L206.727 7.20728H195.364V2.59985L195.345 2.58032H215.631L207.299 13.7581ZM238.403 13.7649C240.261 14.1767 241.948 15.1447 243.352 16.6145C245.22 18.6362 246.211 21.3194 246.211 24.177C246.211 27.0344 245.22 29.6778 243.352 31.6799C241.483 33.7405 239.004 34.8098 236.335 34.8098C233.666 34.8097 231.188 33.7404 229.319 31.6799C227.451 29.6778 226.46 27.0344 226.46 24.177V23.8655H230.73V24.177C230.731 27.5203 233.228 30.2031 236.335 30.2034C239.443 30.2034 241.94 27.5205 241.94 24.177C241.94 20.8334 239.443 18.1506 236.335 18.1506C235.306 18.1507 234.391 18.4616 233.476 18.9475L230.825 16.4983L237.804 7.2063H226.44V2.59888H246.727L238.403 13.7649ZM75.252 34.4211H42.8789L59.0654 0.500244L75.252 34.4211ZM176.013 34.4211H143.64L159.826 0.500244L176.013 34.4211ZM32.8877 34.3821H27.5117V16.6731L16.4346 30.7083L5.39551 16.7317V34.3821H0V1.21899L16.4346 22.4465L32.8877 1.21899V34.3821ZM126.156 34.3821H120.761V2.59888H126.156V34.3821ZM50.1807 29.7561H67.9111L59.0459 11.1526L50.1807 29.7561ZM150.941 29.7561H168.673L159.808 11.1526L150.941 29.7561Z" fill="#FFFEE0"/>
</svg>
