<svg width="38" height="175" viewBox="0 0 38 175" fill="none" xmlns="http://www.w3.org/2000/svg">
<path d="M36.4355 36.7981H30.6045V17.7317L22.085 29.3225V115.604H38L36.2588 118.622L22.6992 142.136C30.0908 143.656 35.6484 150.035 35.6484 158.106C35.6483 167.098 28.3627 174.404 19.3779 174.404C10.3932 174.403 3.10752 167.098 3.10742 158.106C3.10742 150.415 8.42009 144.005 15.5371 142.27L1.89551 118.623L0.15332 115.604H16.208V29.7073L7.31836 17.9289V36.5198H1.4873V1.01878L5.09766 5.73363L18.9502 23.8215L32.8125 5.33324L36.4355 0.500229V36.7981ZM22.085 168.193C26.5148 167.013 29.8173 162.929 29.8174 158.106C29.8174 153.286 26.5497 149.225 22.085 148.029V168.193ZM16.2539 148.117C12.0393 149.442 8.98438 153.389 8.98438 158.06V158.106C8.98445 162.717 12.0555 166.665 16.2539 168.025V148.117ZM16.208 131.691V121.439H10.3125L16.208 131.691ZM22.0391 131.53L27.8359 121.486H22.0391V131.53Z" fill="#0E0E0E"/>
</svg>
