<svg width="494" height="69" viewBox="0 0 494 69" fill="none" xmlns="http://www.w3.org/2000/svg">
<path d="M193.02 3.53711C197.748 3.53718 202.399 4.70353 206.632 7.03613C210.712 9.29109 214.258 12.5186 217.08 16.4453L209.11 22.8984C207.28 20.2938 204.878 18.1558 202.133 16.6396C199.311 15.1235 196.184 14.3067 193.02 14.3066C187.567 14.3066 182.495 16.5619 178.682 20.7607C174.869 24.8818 172.695 30.2469 172.695 36.1562C172.695 42.0657 174.869 47.5088 178.682 51.6299C182.495 55.8288 187.529 58.084 193.02 58.084C196.68 58.0839 200.226 57.0344 203.314 55.0518C205.984 53.3411 208.271 50.9303 209.949 48.1699V41.5605H195.612L195.574 41.4824V30.752H219.901V51.0469L219.329 52.291C216.66 57.2285 212.923 61.3105 208.462 64.1875C203.734 67.1422 198.396 68.7362 193.02 68.7363C188.863 68.7363 184.973 67.8425 181.236 66.1318C177.614 64.5379 174.373 62.2051 171.628 59.1729C168.806 56.2181 166.633 52.7187 165.146 48.792C163.582 44.7488 162.743 40.4333 162.743 36.0791C162.743 31.7248 163.582 27.4868 165.146 23.4824C166.633 19.5557 168.806 16.0563 171.628 13.1016C174.335 10.0692 177.576 7.73658 181.236 6.14258C184.973 4.43192 188.863 3.53711 193.02 3.53711ZM414.598 26.5166C418.334 27.333 421.728 29.2768 424.55 32.2314C428.287 36.2748 430.27 41.6403 430.27 47.3555C430.269 53.0705 428.287 58.3579 424.55 62.3623C420.813 66.4832 415.857 68.6219 410.519 68.6221C405.18 68.6221 400.223 66.4833 396.486 62.3623C392.75 58.3579 390.767 53.0705 390.767 47.3555V46.7334H399.308V47.3555C399.308 54.0425 404.303 59.4072 410.519 59.4072C416.734 59.407 421.728 54.0423 421.729 47.3555C421.729 40.6685 416.734 35.303 410.519 35.3027C408.46 35.3027 406.629 35.9247 404.799 36.8965L399.498 31.998L413.454 13.4141H390.729V4.2002L390.69 4.16113H431.262L414.598 26.5166ZM476.809 26.5273C480.523 27.3511 483.897 29.2898 486.704 32.2295C490.441 36.2728 492.423 41.6384 492.423 47.3535C492.423 53.0684 490.441 58.3559 486.704 62.3604C482.967 66.4814 478.01 68.62 472.672 68.6201C467.334 68.6201 462.376 66.4815 458.64 62.3604C454.903 58.3559 452.92 53.0686 452.92 47.3535V46.7314H461.461V47.3535C461.461 54.0406 466.457 59.4062 472.672 59.4062C478.887 59.406 483.882 54.0405 483.882 47.3535C483.882 40.6666 478.887 35.302 472.672 35.3018C470.613 35.3018 468.782 35.9236 466.952 36.8955L461.651 31.9971L475.607 13.4131H452.882V4.19824H493.453L476.809 26.5273ZM150.503 67.8428H85.7568L118.13 0L150.503 67.8428ZM352.025 67.8428H287.279L319.652 0L352.025 67.8428ZM65.7764 67.7646H55.0234V32.3467L32.8691 60.417L10.791 32.4629V67.7646H0V1.4375L32.8691 43.8936L65.7764 1.4375V67.7646ZM252.312 67.7646H241.521V4.19824H252.312V67.7646ZM100.36 58.5117H135.822L118.092 21.3047L100.36 58.5117ZM301.883 58.5117H337.345L319.614 21.3047L301.883 58.5117Z" fill="#684529"/>
</svg>
